Patient4_TMGait_0pt2_03_left_09_EMG.mot
version=1
nRows=33
nColumns=33
inDegrees=no
endheader
time	1LAddLong	2LGlutMax	3LGlutMed	4LIliopsoas	5LSemiMemb	6LBicFemLong	7LRecFem	8LVastMed	9LVastLat	10LGasMed	11LTibAnt	12lTibPost	13LPeroneusLong	14LSol	15LExtDigLong	16LFlexDigLong	17RAddLong	18RGlutMax	19RGlutMed	20RIliopsoas	21RSemiMemb	22RBicFemLong	23RRecFem	24RVastMed	25RVastLat	26RGasMed	27RTibAnt	28RTibPost	29RPeroneusLong	30RSol	31RExtDigLong	32RFlexDigLong
18.82	-0.024872	-0.045013	-0.054321	0.015564	0.015717	0.068207	0.015411	0.001984	-0.004578	-0.001831	-0.12543	0.003357	-0.018158	0.027771	0.37537	0.018311	-0.001678	0.11383	-0.17471	0.018616	0.005798	-0.076294	0.059052	-0.04425	0.058594	-0.019684	0.010681	0.14679	0.44449	-0.69031	-0.007172	-0.017548
18.821	-0.014496	-0.051727	-0.20783	0.01709	-0.03891	0.03067	0.090637	-0.017853	0.056915	0.008392	-0.05661	-0.003967	-0.025635	0.012054	0.083771	0.003815	0.003204	0.10178	-0.29663	0.032654	0.013885	-0.060577	0.061493	-0.029907	0.048676	-0.002441	0.001526	0.059204	0.45197	-0.21606	0.000458	-0.022583
18.822	-0.016022	-0.028839	-0.15518	0.010834	-0.066528	-0.044098	0.12878	-0.018311	0.092163	0.005188	0.051727	0.001831	-0.057831	0.027618	-0.098419	-0.016479	0.011597	0.15366	-0.23392	0.07843	0.001068	-0.057678	0.063019	-0.039978	0.046234	0.005341	-0.019836	0.013275	0.29938	0.005493	-0.002594	-0.016174
18.823	0.001831	0.015106	-0.051727	0.032501	0.020447	-0.045013	0.12894	-0.010834	0.10239	-0.011139	-0.077209	0.005188	-0.003357	0.050354	-0.3122	-0.012817	0.001678	0.14603	-0.065155	0.068054	-0.001373	-0.052338	0.091705	-0.039368	0.043793	0.009918	-0.023804	-0.050812	0.098267	0.18097	-0.003052	-0.010071
18.824	0.000763	0.031128	0.04364	0.007019	-0.002441	0.010223	0.10819	-0.00412	0.01236	-0.030212	-0.08667	0.002899	0.056458	0.087891	0.35339	-0.003662	0.006409	0.1239	0.26718	0.035858	-0.011597	-0.04425	0.09613	-0.002289	0.052643	0.00351	-0.002899	-0.19577	0.17136	0.00885	-0.003967	-0.011292
18.825	-0.003357	0.056305	0.093079	-0.015564	-0.02182	0.019073	0.080109	-0.005035	-0.016937	0.002136	-0.12009	-0.001221	0.035095	0.13977	0.52689	-0.002747	0.009308	0.088654	0.112	-0.013885	-0.014343	-0.024567	0.068665	-0.036163	0.045166	-0.008545	-0.011292	0.01236	0.15442	0.078125	-0.003967	-0.012512
18.826	0.005646	0.044403	0.066376	-0.010986	-0.025482	0.002289	0.077515	0.013733	-0.065918	0.003204	-0.011139	0.001984	-0.011139	0.12116	0.1091	0.006409	0.009003	0.10803	-0.07782	-0.095673	-0.00824	-0.039368	0.084381	-0.045471	0.017395	-0.006714	0.007019	0.068054	0.063629	0.057678	-0.002594	-0.012817
18.827	0.000458	0.064087	0.07309	-0.006561	0.073242	-0.017395	0.073547	0.011292	-0.050659	-0.034027	0.24536	0.005035	-0.001221	0.1561	-0.46295	0.013275	-0.000305	0.092773	-0.49972	-0.07782	0.025177	-0.037231	0.042725	-0.014801	-0.011749	-0.005341	0.027771	-0.019226	0.13123	0.21606	-0.003662	-0.011292
18.828	0.016785	0.086823	0.042267	0.004272	0.088043	-0.006714	0.050812	0.010986	0.00885	-0.026703	0.29068	0.004425	0.057678	0.17105	-0.52429	0.012665	-0.00061	0.12985	-0.49622	-0.003052	0.012054	-0.037231	0.004883	0.001068	0.018768	-0.001221	0.028076	-0.042114	0.22201	0.29236	-0.003052	-0.003815
18.829	0.008392	0.070953	0.016327	0.014496	0.013123	0.04837	0.054321	0.007324	0.010834	-0.012207	0.27481	-0.000916	0.024719	0.11597	-0.27588	0.009766	0.007782	0.079346	-0.3627	0.019226	0.00061	-0.033569	0.034637	-0.011444	0.016632	0.002441	0.049438	-0.016327	0.16388	0.21622	-0.001068	-0.009155
18.83	0.007477	0.053558	-0.013275	0.031891	-0.076294	0.008698	0.074158	0.00351	-0.013885	0.056458	0.16327	0.000763	-0.036926	0.014343	-0.010376	-0.009003	0.000153	0.18356	-0.21576	0.07019	0.003662	-0.048065	0.051422	-0.020447	0.018463	0.011902	0.054321	-0.06546	-0.53848	0.043945	-0.002747	-0.013733
18.831	0.02243	0.078583	-0.019073	0.022736	-0.12756	-0.054321	0.091705	0.003967	0.028381	-0.053864	-0.073395	-0.001526	0.024872	-0.021057	-0.2182	-0.011139	-0.006714	0.20599	-0.39551	0.043488	0.001373	-0.033264	0.032349	-0.04715	0.033112	0.03067	0.05188	-0.075684	-1.1612	0.027008	-0.003052	-0.004883
18.832	0.031738	0.055237	-0.047607	0.021515	-0.045471	-0.077972	0.10788	0.003967	0.064087	-0.069275	-0.3479	0.004272	0.1503	0.007629	-0.082703	-0.00473	0.002899	0.25833	-0.34271	0.005341	0.003967	-0.04425	-0.026245	-0.05722	0.028229	0.050354	0.068817	-0.014343	-1.4075	0.13153	-0.001831	-0.006714
18.833	0.033417	0.027161	-0.031738	0.017242	0.045319	-0.081329	0.077667	0.003967	0.02655	-0.055389	-0.23224	0.000153	0.12497	0.031586	-0.10346	0.003815	-0.00412	0.21713	-0.36102	-0.00946	-0.007324	-0.023499	0.016174	-0.037079	0.037537	0.072021	-0.063629	-0.34256	-0.76813	-0.027161	-0.007935	-0.000305
18.834	0.020294	0.021362	-0.030975	0.013733	0.085449	-0.030365	0.10819	0.00412	-0.01236	-0.016785	-0.075836	-0.005646	0.053101	-0.074921	0.041199	-0.002747	0.003815	0.15274	-0.39276	-0.025024	-0.00946	-0.020142	0.04715	-0.066833	0.033722	0.051727	-0.13168	0.10468	-0.1004	-0.31433	-0.001221	-0.006561
18.835	0.011139	0.041046	-0.042114	0.004272	0.1152	0.001984	0.096893	0.001678	-0.024414	0.020599	-0.10468	0.002441	0.002289	-0.15335	-0.010986	-0.000916	0.008545	0.1236	-0.1152	-0.10361	-0.00473	-0.034332	0.028687	-0.026855	0.034943	0.007324	-0.058289	-0.067139	0.67932	-0.39505	-0.004883	-0.011292
18.836	-0.010986	0.069427	-0.08194	0.000153	0.054474	0.068512	0.12299	0.005493	-0.040894	0.011292	-0.11536	0.000153	0.075684	-0.16632	-0.39658	-0.000763	0.003204	0.1445	0.059967	-0.16205	-0.005341	-0.018463	0.058899	-0.054474	0.018005	-0.054169	0.054016	-0.066833	0.19058	0.1741	-0.002899	-0.011139
18.837	-0.02243	0.046844	-0.021515	0.000305	-0.020905	0.059967	0.12314	0.019836	-0.029755	0.014038	-0.1181	-0.001221	0.09079	-0.18616	-0.2655	0.008698	0.003204	0.063934	-0.24399	-0.096893	-0.007172	-0.018311	0.036011	-0.028839	0.023804	-0.082703	0.083923	-0.21057	0.42801	0.016785	-0.006104	-0.018005
18.838	-0.040436	0.066986	-0.009613	0.00473	-0.084534	0.025482	0.10361	0.018768	-0.035553	0.025787	0.036926	0.004425	0.068817	-0.10193	-0.053101	-0.002899	0.003357	0.047913	-0.48386	0.001526	0.004272	-0.030518	0.050659	-0.034332	0.02655	-0.045013	0.030212	-0.32242	1.0928	0.22507	-0.001678	-0.02121
18.839	-0.022888	0.080872	-0.048065	0.015259	-0.15625	-0.023041	0.083008	0.028839	-0.019073	0.031891	0.11322	0.004578	0.050354	-0.075989	0.12207	-0.005493	0.006409	0.088196	-0.40237	0.15228	0.015564	-0.007935	0.078735	-0.03067	0.031433	-0.006866	0.023804	0.25131	1.086	0.56778	-0.004272	-0.023041
18.84	0.004883	0.10346	-0.14221	-0.012207	-0.087128	-0.077209	0.07309	0.024567	-0.018311	0.004425	0.090332	0.002441	0.087738	-0.099487	0.13718	0.010986	0.013275	0.087585	-0.50674	0.22705	-0.005188	-0.019989	0.044098	0.007477	0.042877	0.023956	0.028534	0.37262	0.30899	0.38498	-0.004883	-0.021515
18.841	-0.044556	0.12711	-0.083466	0.014496	0.082703	-0.078583	0.062408	0.00946	-0.008087	-0.004272	0.057068	0.002289	-0.3894	-0.080261	0.10941	0.015869	0.010223	0.066528	-0.36087	0.14114	-0.054626	0.025787	0.098114	-0.007477	0.032349	0.021057	-0.00412	0.072479	-0.3978	0.54047	-0.006104	-0.007477
18.842	0.0177	0.12451	0.029144	-0.012054	0.075836	-0.031586	0.044098	0.003815	-0.021973	0.016632	0.068054	0.005951	-0.025787	-0.088654	0.031586	0.006256	0.00061	0.090027	-0.30792	0.050201	-0.078278	0.023041	0.094452	0.014496	0.012054	-0.048523	-0.009155	0.015564	-0.80566	-0.002441	-0.005646	-0.010986
18.843	-0.014191	0.10712	0.064087	0.00946	-0.037537	-0.020294	0.030975	-0.007324	-0.000305	0.017853	0.08316	-0.000153	-0.035553	-0.06134	0.040283	-0.001373	0.010986	0.041046	-0.29785	0.017395	0.034027	-0.033264	0.18646	-0.042725	-0.007324	-0.065613	0.033722	-0.12787	-0.8223	-1.2024	-0.003204	-0.010681
18.844	-0.00061	0.16296	0.041199	0.018005	-0.099487	0.002441	0.061951	-0.006866	0.002289	0.002899	-0.009308	0.004578	0.20828	-0.05188	0.11108	0.00885	0.010223	-0.002136	-0.36789	0.037231	0.02594	-0.031433	0.15747	-0.089264	0.013733	-0.060272	0.04837	0.13504	-0.3096	-1.0048	-0.002899	-0.003357
18.845	0.014343	0.082092	0.063324	0.034485	-0.077057	-0.035706	0.083313	-0.00412	0.001831	-0.010529	0.013428	0.002441	0.092468	-0.035248	0.14618	0.014191	0.00351	0.027771	-0.25604	-0.041351	0.001526	-0.028076	0.15656	-0.12848	0.004425	-0.036011	0.034332	0.20783	0.084686	-0.32989	-0.000458	-0.006409
18.846	0.024872	0.030823	0.10086	0.041962	0.015564	-0.055237	0.13123	-0.008698	0.014801	-0.006104	0.020905	0.00061	-0.054626	-0.015564	0.10742	0.008698	0.001221	0.000153	-0.28625	-0.060883	0.041504	-0.018616	0.085449	-0.040283	0.021362	-0.052795	0.005188	0.11948	0.038452	0.26093	-0.00412	-0.010223
18.847	0.024261	0.014801	0.002289	0.008087	0.063324	-0.031891	0.14862	-0.019684	0.036316	-0.014954	-0.005341	0.008087	-0.31204	0.018768	0.06958	0.004578	0.001678	0.037689	-0.50934	-0.05127	0.065308	0.005188	-0.000916	-0.071716	0.014801	-0.039978	-0.041046	0.019379	0.016785	0.46509	0.00351	-0.002899
18.848	0.024414	-0.010223	0.032196	0.005341	0.063477	-0.037384	0.14923	-0.007782	0.056152	0.00412	0.001678	0.001526	-0.19516	-0.028076	0.049896	0.010986	-0.006866	0.053711	-0.49057	-0.048065	-0.019226	0.046844	0.075226	-0.023804	0.017242	-0.00885	-0.059052	-0.018463	0.14893	0.16144	-0.003204	0.009308
18.849	0.018158	-0.005035	0.010834	0.014343	0.01236	-0.028229	0.080414	0.016327	0.041809	0.014954	0.021973	0.001831	0.052643	0.024567	0.1004	0.003967	-0.020905	0.015259	-0.42602	-0.05127	-0.11505	0.042114	0.076904	0.020294	-0.011444	0.016022	-0.033722	-0.002441	0.37262	-0.065613	0.000305	-0.005951
18.85	0.010986	0.019989	-0.012512	0.004272	-0.063019	-0.011444	0.020905	-0.001526	0.037994	0.010223	0.01297	0.000305	0.090027	-0.037537	0.13016	0.001526	-0.010986	0.034485	-0.59815	0.037994	-0.035858	0.001831	0.040283	-0.004578	-0.029144	0.039215	-0.009766	-0.032959	0.74585	-0.046387	0.011444	-0.011597
18.851	0.004425	0.019684	-0.019836	0.005646	-0.038757	0.000305	-0.038147	0.005035	0.044556	0.014343	0.016022	0.009918	-0.028534	-0.15442	0.099487	-0.007477	-0.004272	0.026093	-0.56519	0.072174	0.010071	-0.023651	-0.012054	-0.010529	-0.001221	0.04837	0.001221	-0.08667	0.84198	0.61035	-0.001068	0.002747
18.852	0.00885	0.010834	-0.033417	-0.001221	0.028992	0.020294	-0.047455	0.002594	0.041962	-0.004272	0.007019	-0.004883	-0.011749	-0.059967	0.056152	0.009613	0.004883	0.034637	-0.35782	0.097351	0.006866	-0.014038	0.04837	0.002594	0.015717	0.024109	0.016022	-0.18326	0.53375	0.54993	0.001984	-0.003815
